<svg width="25" height="24" viewBox="0 0 25 24" fill="none" xmlns="http://www.w3.org/2000/svg">
<path d="M4.27051 21.5605L4.52038 22.2677L4.52045 22.2677L4.27051 21.5605ZM2.73926 20.0293L3.44641 20.2792L3.44644 20.2791L2.73926 20.0293ZM3.66852 17.3984L2.96133 17.1486L3.66852 17.3984ZM3.60227 16.5628L4.26926 16.2198L3.60227 16.5628ZM7.65953 20.7511L7.29585 21.4071L7.65953 20.7511ZM6.79421 20.6685L6.54427 19.9614L6.79421 20.6685ZM12.5 2V2.75C17.6086 2.75 21.75 6.89137 21.75 12H22.5H23.25C23.25 6.06294 18.4371 1.25 12.5 1.25V2ZM22.5 12H21.75C21.75 17.1086 17.6086 21.25 12.5 21.25V22V22.75C18.4371 22.75 23.25 17.9371 23.25 12H22.5ZM12.5 22V21.25C10.8745 21.25 9.34932 20.8305 8.02321 20.0952L7.65953 20.7511L7.29585 21.4071C8.83835 22.2623 10.6131 22.75 12.5 22.75V22ZM6.79421 20.6685L6.54427 19.9614L4.02057 20.8534L4.27051 21.5605L4.52045 22.2677L7.04415 21.3756L6.79421 20.6685ZM4.27051 21.5605L4.02063 20.8534C3.66396 20.9794 3.32037 20.6358 3.44641 20.2792L2.73926 20.0293L2.03211 19.7794C1.48596 21.325 2.97479 22.8138 4.52038 22.2677L4.27051 21.5605ZM2.73926 20.0293L3.44644 20.2791L4.3757 17.6481L3.66852 17.3984L2.96133 17.1486L2.03207 19.7795L2.73926 20.0293ZM3.60227 16.5628L4.26926 16.2198C3.61877 14.9548 3.25 13.5216 3.25 12H2.5H1.75C1.75 13.7669 2.17882 15.4346 2.93528 16.9058L3.60227 16.5628ZM2.5 12H3.25C3.25 6.89137 7.39137 2.75 12.5 2.75V2V1.25C6.56294 1.25 1.75 6.06294 1.75 12H2.5ZM3.66852 17.3984L4.3757 17.6481C4.54742 17.162 4.48834 16.6459 4.26926 16.2198L3.60227 16.5628L2.93528 16.9058C2.98254 16.9977 2.9836 17.0855 2.96133 17.1486L3.66852 17.3984ZM7.65953 20.7511L8.02321 20.0952C7.58754 19.8537 7.05016 19.7826 6.54427 19.9614L6.79421 20.6685L7.04415 21.3756C7.10966 21.3525 7.2015 21.3547 7.29585 21.4071L7.65953 20.7511Z" fill="#2F2F2F"/>
<circle cx="7.55005" cy="12.0498" r="1.25" fill="#2F2F2F"/>
<circle cx="12.55" cy="12.0498" r="1.25" fill="#2F2F2F"/>
<circle cx="17.55" cy="12.0498" r="1.25" fill="#2F2F2F"/>
</svg>
