<svg width="22" height="13" viewBox="0 0 22 13" fill="none" xmlns="http://www.w3.org/2000/svg">
<path d="M11.0001 1C12.1434 1 13.2351 1.03467 14.2751 1.104C15.2924 1.17133 16.2251 1.31133 17.0731 1.524C17.8864 1.72667 18.5927 2.02967 19.1921 2.433C19.7619 2.81739 20.2201 3.34555 20.5201 3.964C20.8461 4.621 21.0001 5.444 21.0001 6.43C21.0014 7.43667 20.8101 8.339 20.4261 9.137C20.0514 9.917 19.5391 10.533 18.8891 10.985C18.2555 11.4247 17.5003 11.6555 16.7291 11.645C16.2197 11.6463 15.7591 11.5763 15.3471 11.435C14.9385 11.295 14.5462 11.1112 14.1771 10.887C13.8212 10.6669 13.4727 10.4351 13.1321 10.192C12.8126 9.96028 12.4782 9.74982 12.1311 9.562C11.785 9.37003 11.3968 9.26663 11.0011 9.261C10.6281 9.261 10.2511 9.358 9.86908 9.561C9.55241 9.731 9.21908 9.941 8.86908 10.191C8.54774 10.421 8.19874 10.6527 7.82208 10.886C7.45433 11.1115 7.06258 11.2953 6.65408 11.434C6.24074 11.5753 5.78141 11.6453 5.27608 11.644C4.50329 11.6558 3.7462 11.4254 3.11108 10.985C2.46041 10.5317 1.94808 9.91567 1.57408 9.137C1.19008 8.33967 0.998743 7.43667 1.00008 6.428C0.996076 5.448 1.15008 4.626 1.47708 3.968C1.77764 3.34931 2.23649 2.82112 2.80708 2.437C3.40708 2.03433 4.11374 1.732 4.92708 1.53C5.84607 1.30652 6.78308 1.16497 7.72708 1.107C8.76708 1.03567 9.85808 1 11.0001 1Z" stroke="white" stroke-width="2" stroke-linecap="round" stroke-linejoin="round"/>
</svg>
