<svg width="25" height="24" viewBox="0 0 25 24" fill="none" xmlns="http://www.w3.org/2000/svg">
<path d="M11.6627 20.2492L5.8877 3.82417C5.8877 3.82417 19.6502 0.48667 19.6502 7.57417V18.1117C19.6502 18.4117 19.2752 18.7867 18.9752 18.7867L11.6627 20.2492Z" fill="#7A8084"/>
<path d="M2.4748 20.2508C2.1748 20.2508 1.7998 19.8758 1.7998 19.5758V9.03828C1.7998 1.95078 12.3373 1.95078 12.3373 9.03828V19.5758C12.3373 19.8758 11.9623 20.2508 11.6623 20.2508H2.4748Z" fill="#94989B"/>
<path d="M9.82539 16.6504C9.45039 16.6504 9.15039 16.9504 9.15039 17.3254C9.15039 17.7004 9.45039 18.0004 9.82539 18.0004C10.2004 18.0004 10.5004 17.7004 10.5004 17.3254C10.5004 16.9504 10.2004 16.6504 9.82539 16.6504Z" fill="#ED4C5C"/>
<path d="M4.1627 20.9246C3.9752 20.9246 3.8252 20.7746 3.8252 20.5871V19.8746C3.8252 19.6871 3.9752 19.5371 4.1627 19.5371H9.9752C10.1627 19.5371 10.3127 19.6871 10.3127 19.8746V20.5871C10.3127 20.7746 10.1627 20.9246 9.9752 20.9246H4.1627Z" fill="#7A8084"/>
<path d="M11.7748 9.33672C11.7748 12.2617 9.5623 15.0742 5.5498 15.0742C2.6248 15.0742 2.1748 8.39922 2.1748 5.47422C2.1748 5.47422 3.8248 4.01172 6.4498 4.01172C9.4123 4.01172 11.7748 6.41172 11.7748 9.33672Z" fill="#3E4347"/>
<path d="M5.2875 15.075C8.20771 15.075 10.575 12.7077 10.575 9.7875C10.575 6.86729 8.20771 4.5 5.2875 4.5C2.36729 4.5 0 6.86729 0 9.7875C0 12.7077 2.36729 15.075 5.2875 15.075Z" fill="#788287"/>
<path d="M10.0121 9.7875C10.0121 12.375 7.91211 14.5125 5.28711 14.5125C2.69961 14.475 0.599609 12.375 0.599609 9.7875C0.599609 7.2 2.69961 5.0625 5.32461 5.0625C7.91211 5.0625 10.0121 7.1625 10.0121 9.7875Z" fill="#212528"/>
<path d="M5.28789 13.6129C7.40038 13.6129 9.11289 11.9004 9.11289 9.78789C9.11289 7.6754 7.40038 5.96289 5.28789 5.96289C3.1754 5.96289 1.46289 7.6754 1.46289 9.78789C1.46289 11.9004 3.1754 13.6129 5.28789 13.6129Z" fill="#3E4347"/>
<path d="M5.28711 11.8496C6.4262 11.8496 7.34961 10.9262 7.34961 9.78711C7.34961 8.64802 6.4262 7.72461 5.28711 7.72461C4.14802 7.72461 3.22461 8.64802 3.22461 9.78711C3.22461 10.9262 4.14802 11.8496 5.28711 11.8496Z" fill="#212528"/>
<path opacity="0.5" d="M8.1002 8.1375C8.1002 8.775 7.5752 9.3375 6.9002 9.3375C6.2627 9.3375 5.7002 8.8125 5.7002 8.1375C5.7002 7.5 6.2252 6.9375 6.9002 6.9375C7.5752 6.9375 8.1002 7.5 8.1002 8.1375Z" fill="#F5F5F5"/>
<path opacity="0.5" d="M4.5752 11.25C4.98941 11.25 5.3252 10.9142 5.3252 10.5C5.3252 10.0858 4.98941 9.75 4.5752 9.75C4.16098 9.75 3.8252 10.0858 3.8252 10.5C3.8252 10.9142 4.16098 11.25 4.5752 11.25Z" fill="#F5F5F5"/>
<path opacity="0.5" d="M3.22539 12.3004C3.47392 12.3004 3.67539 12.0989 3.67539 11.8504C3.67539 11.6019 3.47392 11.4004 3.22539 11.4004C2.97686 11.4004 2.77539 11.6019 2.77539 11.8504C2.77539 12.0989 2.97686 12.3004 3.22539 12.3004Z" fill="#F5F5F5"/>
<path d="M19.1998 7.6493C19.1998 8.2118 18.8998 8.7368 18.4873 8.8493C17.9998 8.9993 17.5498 8.5493 17.5498 7.8368C17.5498 7.1243 17.9998 6.5993 18.4873 6.6368C18.8998 6.5993 19.1998 7.0868 19.1998 7.6493ZM16.9873 8.6618C16.9873 8.8868 16.7248 9.1493 16.3498 9.2243C15.9373 9.2993 15.5998 9.18679 15.5998 8.92429C15.5998 8.66179 15.9373 8.3993 16.3498 8.3243C16.7248 8.2493 16.9873 8.3993 16.9873 8.6618ZM16.9498 7.4618C16.9498 7.6868 16.6873 7.9493 16.3123 8.0243C15.8998 8.0993 15.5623 7.9868 15.5623 7.7243C15.5623 7.4618 15.8998 7.1993 16.3123 7.1243C16.6498 7.0868 16.9498 7.2368 16.9498 7.4618ZM13.7998 10.4993L19.3123 8.9618V12.6368L13.7998 10.4993Z" fill="#3E4347"/>
<path d="M14.1371 19.6871C13.9496 19.6871 13.7996 19.5371 13.7996 19.3496V10.4996C13.7996 10.3121 13.9496 10.1621 14.1371 10.1621H22.0871C24.6746 10.1621 24.6746 19.6871 22.0871 19.6871H14.1371ZM12.7871 11.8871C12.7871 11.6996 12.9371 11.5871 13.0871 11.5871H13.4996C13.6871 11.5871 13.7996 11.7371 13.7996 11.8871V18.0371C13.7996 18.2246 13.6496 18.3371 13.4996 18.3371H13.0871C12.9371 18.3371 12.7871 18.1871 12.7871 18.0371V11.8871Z" fill="#94989B"/>
<path d="M14.4746 10.8379H22.3121V19.0129H14.4746V10.8379Z" fill="#42ADE2"/>
</svg>
