<svg width="24" height="24" viewBox="0 0 24 24" fill="none" xmlns="http://www.w3.org/2000/svg">
<path d="M12 23.9985C18.6275 23.9985 24 18.626 24 11.9985C24 5.372 18.6275 0 12 0C5.3725 0 0 5.3715 0 11.999C0 18.6265 5.3725 23.9985 12 23.9985Z" fill="#B7B7B7" fill-opacity="0.32"/>
<path d="M11.9996 15.4887C15.8556 15.4887 18.9811 13.5352 18.9811 11.1252C18.9811 8.71522 15.8556 6.76172 11.9996 6.76172C8.14358 6.76172 5.01758 8.71472 5.01758 11.1247C5.01758 13.5347 8.14358 15.4887 11.9996 15.4887Z" fill="#FBE158"/>
<path d="M15.1571 7.23334C13.1531 6.59634 10.7201 6.59584 8.68356 7.28534C6.50156 8.02034 5.01855 9.46534 5.01855 11.1253H12.0001L15.1571 7.23334Z" fill="#F99134"/>
<path d="M18.982 11.1264C18.982 12.2264 18.3315 13.1664 17.4545 13.8514V13.8409L15.5085 12.8719L12 11.1269L15.157 7.23438L15.179 7.24088C17.437 7.96338 18.982 9.43088 18.982 11.1264Z" fill="#4AC3AF"/>
<path d="M18.9816 11.125V14.616C18.9816 15.646 18.4101 16.5925 17.4541 17.341V13.8505C18.3311 13.1655 18.9816 12.224 18.9816 11.125Z" fill="#17B198"/>
<path d="M17.455 13.843V13.852C16.346 14.718 14.723 15.3135 12.873 15.4575V15.453L12 11.127L17.455 13.843Z" fill="#21B2D1"/>
<path d="M17.455 13.8496V17.3406C16.3465 18.2071 14.721 18.8026 12.873 18.9466V15.4556C14.723 15.3116 16.346 14.7161 17.4545 13.8501" fill="#059BBF"/>
<path d="M12.8721 15.4575V18.9485C12.5867 18.9701 12.2959 18.981 11.9996 18.981C8.14458 18.981 5.01758 17.0285 5.01758 14.6175V11.127C5.01758 13.725 8.64808 15.7795 12.8721 15.4575Z" fill="#FACB1B"/>
<path d="M12.8721 15.4575C8.62208 15.7815 5.01758 13.7085 5.01758 11.127H11.9996L12.8721 15.4575Z" fill="#FBE158"/>
</svg>
