<svg width="24" height="24" viewBox="0 0 24 24" fill="none" xmlns="http://www.w3.org/2000/svg">
<path d="M20 3.5H4C2.9 3.5 2 4.4 2 5.5V18.5C2 19.6 2.9 20.5 4 20.5H6.5V19.85C6.2 19.7 6 19.35 6 19C6 18.45 6.45 18 7 18C7.55 18 8 18.45 8 19C8 19.35 7.8 19.7 7.5 19.85V20.5H16.5V19.85C16.2 19.7 16 19.35 16 19C16 18.45 16.45 18 17 18C17.55 18 18 18.45 18 19C18 19.35 17.8 19.7 17.5 19.85V20.5H20C21.1 20.5 22 19.6 22 18.5V5.5C22 4.4 21.1 3.5 20 3.5Z" fill="#673AB7"/>
<path d="M12 11C13.1046 11 14 10.1046 14 9C14 7.89543 13.1046 7 12 7C10.8954 7 10 7.89543 10 9C10 10.1046 10.8954 11 12 11Z" fill="#D1C4E9"/>
<path d="M15.5 14C15.5 14 14.55 12 12 12C9.45 12 8.5 14 8.5 14V15H15.5V14Z" fill="#D1C4E9"/>
</svg>
