<svg width="18" height="18" viewBox="0 0 18 18" fill="none" xmlns="http://www.w3.org/2000/svg">
<path d="M9.00153 1.30032e-07C10.382 0.000461544 11.7439 0.318496 12.9819 0.929501C14.2198 1.54051 15.3006 2.4281 16.1406 3.52362C16.9806 4.61914 17.5574 5.89323 17.8262 7.2473C18.0951 8.60138 18.0488 9.99915 17.691 11.3325C17.3332 12.6658 16.6735 13.899 15.7629 14.9366C14.8523 15.9742 13.7152 16.7884 12.4396 17.3162C11.164 17.844 9.78402 18.0713 8.4065 17.9805C7.02898 17.8897 5.69082 17.4832 4.49553 16.7925L0.98853 17.9625C0.858963 18.0058 0.720043 18.0128 0.586762 17.9829C0.45348 17.953 0.330899 17.8872 0.232249 17.7928C0.133598 17.6983 0.0626242 17.5786 0.0269867 17.4468C-0.00865084 17.3149 -0.00759852 17.1758 0.0300301 17.0445L1.09803 13.308C0.350689 11.9372 -0.0271884 10.3955 0.00152215 8.8345C0.0302327 7.27347 0.464543 5.74675 1.26179 4.40435C2.05903 3.06194 3.19178 1.95002 4.54875 1.17783C5.90572 0.405636 7.44023 -0.000265236 9.00153 1.30032e-07ZM9.75153 5.25C9.75153 5.05109 9.67251 4.86032 9.53186 4.71967C9.39121 4.57902 9.20044 4.5 9.00153 4.5C8.80262 4.5 8.61185 4.57902 8.4712 4.71967C8.33055 4.86032 8.25153 5.05109 8.25153 5.25V8.25H5.25153C5.05262 8.25 4.86185 8.32902 4.7212 8.46967C4.58055 8.61032 4.50153 8.80109 4.50153 9C4.50153 9.19891 4.58055 9.38968 4.7212 9.53033C4.86185 9.67098 5.05262 9.75 5.25153 9.75H8.25153V12.75C8.25153 12.9489 8.33055 13.1397 8.4712 13.2803C8.61185 13.421 8.80262 13.5 9.00153 13.5C9.20044 13.5 9.39121 13.421 9.53186 13.2803C9.67251 13.1397 9.75153 12.9489 9.75153 12.75V9.75H12.7515C12.9504 9.75 13.1412 9.67098 13.2819 9.53033C13.4225 9.38968 13.5015 9.19891 13.5015 9C13.5015 8.80109 13.4225 8.61032 13.2819 8.46967C13.1412 8.32902 12.9504 8.25 12.7515 8.25H9.75153V5.25Z" fill="url(#paint0_linear_6371_84776)"/>
<path d="M9.75195 5.25C9.75195 5.05109 9.67294 4.86032 9.53228 4.71967C9.39163 4.57902 9.20087 4.5 9.00195 4.5C8.80304 4.5 8.61228 4.57902 8.47162 4.71967C8.33097 4.86032 8.25195 5.05109 8.25195 5.25V8.25H5.25195C5.05304 8.25 4.86228 8.32902 4.72162 8.46967C4.58097 8.61032 4.50195 8.80109 4.50195 9C4.50195 9.19891 4.58097 9.38968 4.72162 9.53033C4.86228 9.67098 5.05304 9.75 5.25195 9.75H8.25195V12.75C8.25195 12.9489 8.33097 13.1397 8.47162 13.2803C8.61228 13.421 8.80304 13.5 9.00195 13.5C9.20087 13.5 9.39163 13.421 9.53228 13.2803C9.67294 13.1397 9.75195 12.9489 9.75195 12.75V9.75H12.752C12.9509 9.75 13.1416 9.67098 13.2823 9.53033C13.4229 9.38968 13.502 9.19891 13.502 9C13.502 8.80109 13.4229 8.61032 13.2823 8.46967C13.1416 8.32902 12.9509 8.25 12.752 8.25H9.75195V5.25Z" fill="url(#paint1_linear_6371_84776)"/>
<defs>
<linearGradient id="paint0_linear_6371_84776" x1="0.64503" y1="3.375" x2="16.359" y2="30.1665" gradientUnits="userSpaceOnUse">
<stop stop-color="#0FAFFF"/>
<stop offset="1" stop-color="#CC23D1"/>
</linearGradient>
<linearGradient id="paint1_linear_6371_84776" x1="5.28945" y1="4.6575" x2="6.78495" y2="14.304" gradientUnits="userSpaceOnUse">
<stop stop-color="#FDFDFD"/>
<stop offset="1" stop-color="#CCEAFF"/>
</linearGradient>
</defs>
</svg>
