<svg width="24" height="24" viewBox="0 0 24 24" fill="none" xmlns="http://www.w3.org/2000/svg">
<path d="M12 2C6.5 2 2 6.5 2 12C2 17.5 6.5 22 12 22C17.5 22 22 17.5 22 12C22 6.5 17.5 2 12 2Z" fill="#7CB342"/>
<path d="M22.5 12C22.5 17.85 17.75 22.5 12 22.5C6.25 22.5 1.5 17.85 1.5 12C1.5 6.15 6.15 1.5 12 1.5C17.85 1.5 22.5 6.15 22.5 12ZM11.9 16.85C11.9 16.65 11.8 16.55 11.6 16.45C10.95 16.25 10.35 16.25 9.8 15.7C9.7 15.5 9.7 15.3 9.6 15.05C9.4 14.85 8.85 14.75 8.55 14.65H6.45C6.15 14.55 5.9 14.1 5.7 13.8C5.7 13.7 5.7 13.5 5.5 13.5C5.3 13.4 5.1 13.6 4.85 13.5C4.75 13.4 4.75 13.3 4.75 13.2C4.75 12.9 4.95 12.55 5.15 12.35C5.45 12.15 5.8 12.45 6.1 12.45C6.2 12.45 6.2 12.45 6.3 12.55C6.6 12.65 6.7 13.05 6.7 13.4V13.6C6.7 13.7 6.8 13.7 6.9 13.7C7 13.15 7 12.65 7.1 12.1C7.1 11.45 7.75 10.85 8.25 10.65C8.45 10.55 8.55 10.75 8.8 10.65C9.45 10.45 11 9.8 10.7 8.95C10.5 8.2 9.85 7.5 9 7.6C8.8 7.7 8.7 7.8 8.5 7.9C8.2 8.1 7.55 8.75 7.25 8.75C6.7 8.65 6.7 7.9 6.85 7.6C6.95 7.2 7.9 5.8 8.55 6.05L8.95 6.45C9.15 6.55 9.5 6.55 9.8 6.55C9.9 6.55 10 6.55 10.1 6.45C10.2 6.35 10.2 6.35 10.2 6.25C10.2 5.95 9.9 5.6 9.7 5.4C9.5 5.2 9.15 5 8.85 4.85C7.8 4.55 6.1 4.95 5.3 5.7C4.5 6.45 3.85 7.7 3.4 8.75C3.2 9.4 3 10.2 2.9 10.95C2.8 11.45 2.7 11.9 3 12.4C3.3 13.05 3.95 13.65 4.6 14.1C5 14.4 5.85 14.4 6.3 14.95C6.6 15.35 6.5 15.9 6.5 16.4C6.5 17.05 6.9 17.55 7.15 18.1C7.25 18.4 7.35 18.85 7.45 19.15C7.45 19.25 7.55 19.9 7.55 20C8.2 20.3 8.7 20.65 9.45 20.85C9.55 20.85 9.95 20.2 9.95 20.1C10.25 19.8 10.5 19.35 10.8 19.15C11 19.05 11.2 18.95 11.45 18.75C11.65 18.55 11.75 18.1 11.85 17.8C11.9 17.55 12 17.15 11.9 16.85ZM12.1 7.15C12.2 7.15 12.3 7.05 12.5 6.95C12.8 6.75 13.15 6.4 13.45 6.2C13.75 6 14.1 5.65 14.3 5.45C14.6 5.25 14.85 4.8 14.95 4.5C15.05 4.3 15.35 3.85 15.25 3.55C15.15 3.35 14.6 3.25 14.4 3.15C13.55 2.95 12.85 2.85 12 2.85C11.7 2.85 11.25 2.95 11.15 3.25C11.05 3.8 11.45 3.65 11.9 3.8C11.9 3.8 12 4.65 12 4.75C12.1 5.25 11.8 5.6 11.8 6.1C11.8 6.4 11.8 6.95 12 7.15H12.1ZM20.9 14.5C21 14.3 21 13.95 21.1 13.75C21.2 13.25 21.2 12.7 21.2 12.2C21.2 11.15 21.1 10.1 20.8 9.15C20.6 8.85 20.5 8.5 20.4 8.2C20.2 7.65 19.9 7.15 19.45 6.75C19.05 6.2 18.5 4.75 17.55 5.2C17.25 5.3 17.05 5.7 16.8 5.95C16.6 6.25 16.4 6.6 16.15 6.9C16.05 7 15.95 7.2 16.05 7.3C16.05 7.4 16.15 7.4 16.25 7.4C16.45 7.5 16.55 7.5 16.75 7.6C16.85 7.6 16.95 7.7 16.85 7.8C16.85 7.8 16.85 7.9 16.75 7.9C16.25 8.45 15.7 8.85 15.2 9.35C15.1 9.45 15 9.65 15 9.75C15 9.85 15.1 9.85 15.1 9.95C15.1 10.05 15 10.05 14.9 10.15C14.7 10.25 14.5 10.35 14.35 10.45C14.25 10.65 14.35 11 14.25 11.2C14.15 11.75 13.85 12.15 13.6 12.65C13.4 12.95 13.3 13.3 13.1 13.6C13.1 14 13 14.35 13.2 14.65C13.7 15.4 14.65 14.95 15.4 15.3C15.6 15.4 15.8 15.4 15.95 15.6C16.25 15.9 16.25 16.45 16.35 16.75C16.45 17.15 16.55 17.6 16.75 18C16.85 18.5 17.05 19.05 17.15 19.45C18.1 18.7 18.95 17.9 19.55 16.85C20.3 16.2 20.6 15.35 20.9 14.5Z" fill="#0277BD"/>
</svg>
