<svg width="24" height="24" viewBox="0 0 24 24" fill="none" xmlns="http://www.w3.org/2000/svg">
<path d="M19.9181 2.92385C19.9151 2.92103 19.9117 2.91916 19.9087 2.91635C16.1374 -0.321215 10.809 -0.895715 6.39955 1.35597C1.99311 3.60635 -0.515455 8.62478 0.0892326 13.4885C0.511483 16.8873 2.40654 19.8677 5.11348 21.7826C5.11348 21.7826 12.5754 15.1194 14.5569 12.7548C16.4154 10.5354 20.4733 3.44772 20.4733 3.44772C20.2939 3.26722 20.1086 3.09257 19.9179 2.92403L19.9181 2.92385Z" fill="#4ADFE7"/>
<path d="M5.11328 21.782C6.37758 22.6779 7.80113 23.3245 9.30766 23.6871C14.0867 24.8315 19.2395 22.7534 21.9733 18.7023C25.1955 13.9261 24.4869 7.47514 20.4731 3.44727L12.8328 12.5675L5.11328 21.7818V21.782Z" fill="#E127B9"/>
<path d="M12.3843 8.98988C12.3843 8.98988 11.2406 6.4875 8.86006 7.05694C6.47975 7.62675 1.50837 12.4884 12.011 18.537H12.0026C22.505 12.4883 17.5342 7.62694 15.1537 7.05694C12.773 6.48769 11.6294 8.98988 11.6294 8.98988H12.3843Z" fill="white"/>
</svg>
