<svg width="13" height="15" viewBox="0 0 13 15" fill="none" xmlns="http://www.w3.org/2000/svg">
<path d="M6.66667 8.83467V10.228C6.06328 10.0147 5.41752 9.94924 4.7836 10.0372C4.14969 10.1251 3.54613 10.3639 3.02362 10.7335C2.50111 11.103 2.0749 11.5925 1.78077 12.1609C1.48665 12.7293 1.33321 13.36 1.33333 14H3.83474e-07C-0.000308321 13.1859 0.185771 12.3825 0.543979 11.6514C0.902187 10.9203 1.42301 10.2809 2.06655 9.78223C2.71008 9.28355 3.45924 8.93883 4.25661 8.77446C5.05397 8.6101 5.87839 8.63113 6.66667 8.83467ZM5.33333 8C3.12333 8 1.33333 6.21 1.33333 4C1.33333 1.79 3.12333 0 5.33333 0C7.54333 0 9.33333 1.79 9.33333 4C9.33333 6.21 7.54333 8 5.33333 8ZM5.33333 6.66667C6.80667 6.66667 8 5.47333 8 4C8 2.52667 6.80667 1.33333 5.33333 1.33333C3.86 1.33333 2.66667 2.52667 2.66667 4C2.66667 5.47333 3.86 6.66667 5.33333 6.66667ZM10 11.0573L11.414 9.64333L12.3573 10.586L10.9427 12L12.3567 13.414L11.414 14.3573L10 12.9427L8.586 14.3567L7.64267 13.414L9.058 12L7.644 10.586L8.58667 9.64267L10 11.0573Z" fill="black"/>
</svg>
