<svg width="20" height="19" viewBox="0 0 20 19" fill="none" xmlns="http://www.w3.org/2000/svg">
<path d="M8.236 1.11416C9.0445 -0.380841 11.194 -0.368841 11.986 1.13516L19.7525 15.8862C20.4975 17.3012 19.4715 19.0012 17.8725 19.0012H2.128C0.517999 19.0012 -0.507001 17.2812 0.258999 15.8652L8.236 1.11416Z" fill="#212121"/>
<path d="M8.236 1.11416C9.0445 -0.380841 11.194 -0.368841 11.986 1.13516L19.7525 15.8862C20.4975 17.3012 19.4715 19.0012 17.8725 19.0012H2.128C0.517999 19.0012 -0.507001 17.2812 0.258999 15.8652L8.236 1.11416Z" fill="url(#paint0_linear_6511_59796)"/>
<path d="M10.001 5.5C10.346 5.5 10.626 5.78 10.626 6.125V11.875C10.626 12.0408 10.5601 12.1997 10.4429 12.3169C10.3257 12.4342 10.1667 12.5 10.001 12.5C9.83522 12.5 9.67624 12.4342 9.55903 12.3169C9.44182 12.1997 9.37598 12.0408 9.37598 11.875V6.125C9.37598 5.78 9.65598 5.5 10.001 5.5ZM10.001 15.5C10.2662 15.5 10.5205 15.3946 10.7081 15.2071C10.8956 15.0196 11.001 14.7652 11.001 14.5C11.001 14.2348 10.8956 13.9804 10.7081 13.7929C10.5205 13.6054 10.2662 13.5 10.001 13.5C9.73576 13.5 9.48141 13.6054 9.29387 13.7929C9.10633 13.9804 9.00098 14.2348 9.00098 14.5C9.00098 14.7652 9.10633 15.0196 9.29387 15.2071C9.48141 15.3946 9.73576 15.5 10.001 15.5Z" fill="url(#paint1_linear_6511_59796)"/>
<defs>
<linearGradient id="paint0_linear_6511_59796" x1="3.1255" y1="-2.96884" x2="15.2265" y2="21.2927" gradientUnits="userSpaceOnUse">
<stop stop-color="#FFCD0F"/>
<stop offset="1" stop-color="#FE8401"/>
</linearGradient>
<linearGradient id="paint1_linear_6511_59796" x1="7.33448" y1="5.5" x2="12.138" y2="15.748" gradientUnits="userSpaceOnUse">
<stop stop-color="#4A4A4A"/>
<stop offset="1" stop-color="#242424"/>
</linearGradient>
</defs>
</svg>
