<svg width="24" height="25" viewBox="0 0 24 25" fill="none" xmlns="http://www.w3.org/2000/svg">
<g clip-path="url(#clip0_1651_23621)">
<path d="M2.5 11.4697C2.5 10.2455 3.06058 9.08869 4.02142 8.33013L9.52142 3.98802C10.9747 2.84073 13.0253 2.84073 14.4786 3.98802L19.9786 8.33013C20.9394 9.08869 21.5 10.2455 21.5 11.4697V18.0313C21.5 20.2404 19.7091 22.0312 17.5 22.0312H16C15.4477 22.0312 15 21.5835 15 21.0312V18.0312C15 16.9267 14.1046 16.0312 13 16.0312H11C9.89543 16.0312 9 16.9267 9 18.0313V21.0312C9 21.5835 8.55228 22.0312 8 22.0312H6.5C4.29086 22.0312 2.5 20.2404 2.5 18.0313L2.5 11.4697Z" stroke="#595959" stroke-width="1.5"/>
</g>
<defs>
<clipPath id="clip0_1651_23621">
<rect width="24" height="24" fill="white" transform="translate(0 0.53125)"/>
</clipPath>
</defs>
</svg>
