<svg width="22" height="19" viewBox="0 0 22 19" fill="none" xmlns="http://www.w3.org/2000/svg">
<path d="M16 7.00037L16.658 6.67137C18.604 5.69837 19.578 5.21137 20.288 5.65137C21 6.09137 21 7.17937 21 9.35437V9.64637C21 11.8224 21 12.9094 20.289 13.3494C19.577 13.7894 18.604 13.3024 16.659 12.3294L16 12.0004V7.00037Z" stroke="white" stroke-width="1.5"/>
<path d="M8.5 13V6M8.5 6L11 9M8.5 6L6 9" stroke="white" stroke-width="1.5" stroke-linecap="round" stroke-linejoin="round"/>
<path d="M1 9V10C1 13.287 1 14.931 1.908 16.038C2.07409 16.2404 2.25965 16.4259 2.462 16.592C3.57 17.5 5.212 17.5 8.5 17.5C11.787 17.5 13.431 17.5 14.538 16.592C14.7407 16.4253 14.9253 16.2407 15.092 16.038C16 14.93 16 13.288 16 10V9C16 5.713 16 4.069 15.092 2.962C14.9259 2.75965 14.7404 2.57409 14.538 2.408C13.43 1.5 11.788 1.5 8.5 1.5C5.213 1.5 3.569 1.5 2.462 2.408C2.25965 2.57409 2.07409 2.75965 1.908 2.962C1.48 3.484 1.254 4.124 1.134 5" stroke="white" stroke-width="1.5" stroke-linecap="round"/>
</svg>
