<svg width="24" height="25" viewBox="0 0 24 25" fill="none" xmlns="http://www.w3.org/2000/svg">
<path fill-rule="evenodd" clip-rule="evenodd" d="M3.25 10.5612C3.25 7.86125 5.62 5.78125 8.4 5.78125C9.833 5.78125 11.095 6.45325 12 7.32325C12.905 6.45325 14.166 5.78125 15.6 5.78125C18.38 5.78125 20.75 7.86125 20.75 10.5612C20.75 12.4112 19.961 14.0372 18.868 15.4132C17.778 16.7852 16.35 17.9502 14.984 18.8972C14.461 19.2592 13.934 19.5922 13.45 19.8382C12.997 20.0692 12.475 20.2812 12 20.2812C11.525 20.2812 11.004 20.0692 10.55 19.8382C10.0194 19.5578 9.5073 19.2435 9.017 18.8972C7.65 17.9502 6.223 16.7852 5.132 15.4132C4.039 14.0372 3.25 12.4112 3.25 10.5612ZM8.4 7.28125C6.32 7.28125 4.75 8.81125 4.75 10.5612C4.75 11.9642 5.346 13.2712 6.306 14.4792C7.268 15.6892 8.563 16.7582 9.871 17.6642C10.366 18.0072 10.831 18.2983 11.231 18.5023C11.659 18.7203 11.907 18.7812 12 18.7812C12.093 18.7812 12.341 18.7202 12.77 18.5012C13.2414 18.2528 13.6958 17.9731 14.13 17.6642C15.437 16.7582 16.732 15.6903 17.694 14.4792C18.654 13.2712 19.25 11.9642 19.25 10.5612C19.25 8.81125 17.68 7.28125 15.6 7.28125C14.406 7.28125 13.29 7.99425 12.595 8.90025C12.525 8.99151 12.4349 9.06544 12.3317 9.11632C12.2285 9.1672 12.115 9.19366 12 9.19366C11.885 9.19366 11.7715 9.1672 11.6683 9.11632C11.5651 9.06544 11.475 8.99151 11.405 8.90025C10.71 7.99425 9.595 7.28125 8.4 7.28125Z" fill="#595959"/>
</svg>
