<svg width="24" height="25" viewBox="0 0 24 25" fill="none" xmlns="http://www.w3.org/2000/svg">
<path d="M17 9.96424L17.658 9.63524C19.604 8.66224 20.578 8.17524 21.288 8.61524C22 9.05524 22 10.1432 22 12.3182V12.6102C22 14.7862 22 15.8732 21.289 16.3132C20.577 16.7532 19.604 16.2662 17.659 15.2932L17 14.9642V9.96424Z" stroke="#FF3B30" stroke-width="1.5"/>
<path d="M9.5 15.9639V8.96387M9.5 8.96387L12 11.9639M9.5 8.96387L7 11.9639" stroke="#FF3B30" stroke-width="1.5" stroke-linecap="round" stroke-linejoin="round"/>
<path d="M2 11.9639V12.9639C2 16.2509 2 17.8949 2.908 19.0019C3.07409 19.2042 3.25965 19.3898 3.462 19.5559C4.57 20.4639 6.212 20.4639 9.5 20.4639C12.787 20.4639 14.431 20.4639 15.538 19.5559C15.7407 19.3892 15.9253 19.2045 16.092 19.0019C17 17.8939 17 16.2519 17 12.9639V11.9639C17 8.67687 17 7.03287 16.092 5.92587C15.9259 5.72352 15.7404 5.53796 15.538 5.37187C14.43 4.46387 12.788 4.46387 9.5 4.46387C6.213 4.46387 4.569 4.46387 3.462 5.37187C3.25965 5.53796 3.07409 5.72352 2.908 5.92587C2.48 6.44787 2.254 7.08787 2.134 7.96387" stroke="#FF3B30" stroke-width="1.5" stroke-linecap="round"/>
</svg>
