<svg width="24" height="25" viewBox="0 0 24 25" fill="none" xmlns="http://www.w3.org/2000/svg">
<path d="M16.5 6.53125V7.28125M16.5 10.2812V11.0312M16.5 14.0312V14.7812M16.5 17.7812V18.5312M7.5 13.2812H12.75M7.5 15.5312H10.5M3.375 5.78125C2.754 5.78125 2.25 6.28525 2.25 6.90625V9.93225C2.70675 10.1952 3.08612 10.5739 3.34992 11.0302C3.61371 11.4865 3.7526 12.0042 3.7526 12.5312C3.7526 13.0583 3.61371 13.576 3.34992 14.0323C3.08612 14.4886 2.70675 14.8673 2.25 15.1302V18.1562C2.25 18.7772 2.754 19.2812 3.375 19.2812H20.625C21.246 19.2812 21.75 18.7772 21.75 18.1562V15.1302C21.2933 14.8673 20.9139 14.4886 20.6501 14.0323C20.3863 13.576 20.2474 13.0583 20.2474 12.5312C20.2474 12.0042 20.3863 11.4865 20.6501 11.0302C20.9139 10.5739 21.2933 10.1952 21.75 9.93225V6.90625C21.75 6.28525 21.246 5.78125 20.625 5.78125H3.375Z" stroke="#595959" stroke-width="1.5" stroke-linecap="round" stroke-linejoin="round"/>
</svg>
