<svg width="34" height="33" viewBox="0 0 34 33" fill="none" xmlns="http://www.w3.org/2000/svg">
<path d="M23.3389 4.59064L23.3389 3.59676H23.3389V4.59064ZM29.9648 19.1678L30.9587 19.1678V19.1678H29.9648ZM23.3389 25.7928L23.3389 26.7867L23.3389 26.7867L23.3389 25.7928ZM5.61426 29.3719L6.23503 30.148L6.23523 30.1479L5.61426 29.3719ZM10.0869 4.59064L10.0869 3.59676L10.0869 3.59676L10.0869 4.59064ZM9.36087 26.3738L8.7399 25.5978L9.36087 26.3738ZM23.3389 4.59064L23.3388 5.58451C26.4492 5.58459 28.971 8.10626 28.971 11.2166H29.9648H30.9587C30.9587 7.0084 27.547 3.59687 23.3389 3.59676L23.3389 4.59064ZM29.9648 11.2166H28.971V19.1678H29.9648H30.9587V11.2166H29.9648ZM29.9648 19.1678L28.971 19.1677C28.9708 22.2778 26.4493 24.7988 23.3388 24.7989L23.3389 25.7928L23.3389 26.7867C27.5468 26.7866 30.9585 23.376 30.9587 19.1678L29.9648 19.1678ZM23.3389 25.7928V24.7989H11.0168V25.7928V26.7867H23.3389V25.7928ZM9.36087 26.3738L8.7399 25.5978L4.99329 28.5959L5.61426 29.3719L6.23523 30.1479L9.98185 27.1498L9.36087 26.3738ZM5.61426 29.3719L4.99348 28.5957C4.77662 28.7692 4.45481 28.6146 4.45481 28.3367H3.46094H2.46706C2.46706 30.2811 4.71656 31.3625 6.23503 30.148L5.61426 29.3719ZM3.46094 28.3367H4.45481V11.2166H3.46094H2.46706V28.3367H3.46094ZM3.46094 11.2166H4.45481C4.45481 8.10623 6.97651 5.58457 10.0869 5.58451L10.0869 4.59064L10.0869 3.59676C5.87874 3.59684 2.46706 7.00839 2.46706 11.2166H3.46094ZM10.0869 4.59064V5.58451H23.3389V4.59064V3.59676H10.0869V4.59064ZM11.0168 25.7928V24.7989C10.1891 24.7989 9.38613 25.0807 8.7399 25.5978L9.36087 26.3738L9.98185 27.1498C10.2756 26.9147 10.6406 26.7867 11.0168 26.7867V25.7928Z" fill="#2F2F2F"/>
<circle cx="10.1526" cy="15.258" r="1.65646" fill="#2F2F2F"/>
<circle cx="16.7785" cy="15.258" r="1.65646" fill="#2F2F2F"/>
<circle cx="23.4055" cy="15.258" r="1.65646" fill="#2F2F2F"/>
</svg>
