<svg width="34" height="33" viewBox="0 0 34 33" fill="none" xmlns="http://www.w3.org/2000/svg">
<path d="M22.816 27.0519C22.5356 27.0519 22.3009 26.9379 22.1119 26.7098C21.9228 26.4816 21.8283 26.1985 21.8283 25.8602V21.1524C21.8283 20.8152 21.9228 20.5325 22.1119 20.3044C22.3009 20.0763 22.5356 19.9617 22.816 19.9607H24.5078C24.7881 19.9607 25.0228 20.0748 25.2119 20.3029C25.4009 20.531 25.4955 20.8142 25.4955 21.1524V25.8602C25.4955 26.1985 25.4009 26.4816 25.2119 26.7098C25.0228 26.9379 24.7881 27.0519 24.5078 27.0519H22.816ZM16.0928 27.0519C15.8124 27.0519 15.5777 26.9379 15.3886 26.7098C15.1996 26.4816 15.1051 26.1985 15.1051 25.8602V7.59539C15.1051 7.25814 15.1996 6.97496 15.3886 6.74586C15.5777 6.51677 15.8124 6.40271 16.0928 6.40369H17.7846C18.0649 6.40369 18.2996 6.51775 18.4887 6.74586C18.6777 6.97398 18.7723 7.25715 18.7723 7.59539V25.8602C18.7723 26.1985 18.6777 26.4816 18.4887 26.7098C18.2996 26.9379 18.0649 27.0519 17.7846 27.0519H16.0928ZM9.36954 27.0519C9.0892 27.0519 8.8545 26.9379 8.66543 26.7098C8.47637 26.4816 8.38184 26.1985 8.38184 25.8602V14.6999C8.38184 14.3479 8.47637 14.0593 8.66543 13.8341C8.8545 13.6089 9.0892 13.4959 9.36954 13.4949H11.0613C11.3409 13.4949 11.5756 13.6089 11.7654 13.8371C11.9553 14.0652 12.0499 14.3484 12.049 14.6866V25.847C12.049 26.199 11.9545 26.4876 11.7654 26.7127C11.5764 26.9379 11.3417 27.051 11.0613 27.0519H9.36954Z" fill="#2F2F2F"/>
</svg>
